<svg xmlns="http://www.w3.org/2000/svg" viewBox="0 0 1280 400" role="img" aria-label="Foretack — Sailing Race Assistant for B&amp;G NMEA 2000 instruments">
  <defs>
    <!-- Mély tengeri éjszaka gradient -->
    <linearGradient id="bg" x1="0" y1="0" x2="1" y2="1">
      <stop offset="0%" stop-color="#04101e"/>
      <stop offset="55%" stop-color="#07182b"/>
      <stop offset="100%" stop-color="#0a2540"/>
    </linearGradient>
    <!-- Foszforos cián, mint egy MFD kijelzőn -->
    <linearGradient id="accentLine" x1="0" y1="0" x2="1" y2="0">
      <stop offset="0%" stop-color="#00e0ff" stop-opacity="0"/>
      <stop offset="50%" stop-color="#00e0ff" stop-opacity="0.9"/>
      <stop offset="100%" stop-color="#00e0ff" stop-opacity="0"/>
    </linearGradient>
    <radialGradient id="compassGlow" cx="50%" cy="50%" r="50%">
      <stop offset="0%" stop-color="#00e0ff" stop-opacity="0.18"/>
      <stop offset="60%" stop-color="#00e0ff" stop-opacity="0.04"/>
      <stop offset="100%" stop-color="#00e0ff" stop-opacity="0"/>
    </radialGradient>
    <!-- Finom raszter, mint egy radar -->
    <pattern id="grid" width="40" height="40" patternUnits="userSpaceOnUse">
      <path d="M 40 0 L 0 0 0 40" fill="none" stroke="#1b3a5b" stroke-width="0.5" opacity="0.45"/>
    </pattern>
    <pattern id="gridFine" width="8" height="8" patternUnits="userSpaceOnUse">
      <path d="M 8 0 L 0 0 0 8" fill="none" stroke="#1b3a5b" stroke-width="0.3" opacity="0.25"/>
    </pattern>
  </defs>

  <!-- Háttér rétegek -->
  <rect width="1280" height="400" fill="url(#bg)"/>
  <rect width="1280" height="400" fill="url(#gridFine)"/>
  <rect width="1280" height="400" fill="url(#grid)"/>

  <!-- Felső adatcsík, mint egy műszerfal -->
  <g font-family="'JetBrains Mono','SF Mono','Consolas',monospace" font-size="11" fill="#5d8bb3" letter-spacing="2">
    <rect x="0" y="0" width="1280" height="28" fill="#04101e" opacity="0.6"/>
    <line x1="0" y1="28" x2="1280" y2="28" stroke="url(#accentLine)" stroke-width="0.8"/>
    <text x="40" y="18">MWV·0183</text>
    <text x="160" y="18">TWA <tspan fill="#00e0ff">-042°</tspan></text>
    <text x="270" y="18">TWS <tspan fill="#00e0ff">14.8 kn</tspan></text>
    <text x="390" y="18">COG <tspan fill="#00e0ff">218°</tspan></text>
    <text x="490" y="18">SOG <tspan fill="#00e0ff">6.3 kn</tspan></text>
    <text x="590" y="18">HDG <tspan fill="#00e0ff">221°M</tspan></text>
    <text x="700" y="18">DTM <tspan fill="#00e0ff">1.42 NM</tspan></text>
    <text x="830" y="18">BTM <tspan fill="#00e0ff">204°T</tspan></text>
    <text x="940" y="18">ETA <tspan fill="#00e0ff">13:24:08</tspan></text>
    <text x="1090" y="18">PRED TWA <tspan fill="#ffd24a">-038°</tspan></text>
    <text x="1230" y="18" text-anchor="end" fill="#7aa3c9">● LIVE</text>
  </g>

  <!-- BAL OLDAL: tipográfiai blokk -->
  <g>
    <!-- Vékony függőleges accent -->
    <line x1="58" y1="80" x2="58" y2="340" stroke="#00e0ff" stroke-width="2"/>
    <line x1="58" y1="80" x2="58" y2="340" stroke="#00e0ff" stroke-width="6" opacity="0.15"/>

    <!-- Kis label felül -->
    <text x="88" y="100" font-family="'JetBrains Mono','SF Mono','Consolas',monospace"
          font-size="13" fill="#7aa3c9" letter-spacing="6">SAILING · RACE · ASSISTANT</text>

    <!-- Fő logo szöveg -->
    <text x="86" y="192" font-family="'Bebas Neue','Oswald','Anton','Arial Narrow',sans-serif"
          font-size="104" font-weight="700" fill="#f4f8fb" letter-spacing="2">FORETACK</text>

    <!-- Aláhúzás -->
    <line x1="88" y1="212" x2="612" y2="212" stroke="url(#accentLine)" stroke-width="1.2"/>

    <!-- Pozícióadat tag -->
    <text x="88" y="252" font-family="'JetBrains Mono','SF Mono','Consolas',monospace"
          font-size="14" fill="#9bb8d4" letter-spacing="1">
      <tspan fill="#5d8bb3">46.8° N</tspan>
      <tspan dx="14" fill="#5d8bb3">·</tspan>
      <tspan dx="14" fill="#5d8bb3">17.7° E</tspan>
      <tspan dx="14" fill="#5d8bb3">·</tspan>
      <tspan dx="14" fill="#7aa3c9">LAKE BALATON</tspan>
    </text>

    <!-- Tech stack csík alul -->
    <g font-family="'JetBrains Mono','SF Mono','Consolas',monospace" font-size="11" fill="#5d8bb3" letter-spacing="2.5">
      <text x="88" y="312">FLUTTER</text>
      <text x="180" y="312">·</text>
      <text x="196" y="312">DART</text>
      <text x="252" y="312">·</text>
      <text x="268" y="312">NMEA 0183</text>
      <text x="362" y="312">·</text>
      <text x="378" y="312">RIVERPOD</text>
      <text x="468" y="312">·</text>
      <text x="484" y="312">DRIFT</text>
      <text x="546" y="312">·</text>
      <text x="562" y="312">WEAR OS</text>
    </g>

    <!-- Status sor a logo alá -->
    <g font-family="'JetBrains Mono','SF Mono','Consolas',monospace" font-size="11" letter-spacing="3">
      <circle cx="92" cy="345" r="3" fill="#52e08a"/>
      <text x="104" y="349" fill="#7aa3c9">VULCAN WiFi CONNECTED</text>
      <text x="320" y="349" fill="#5d8bb3">·</text>
      <text x="336" y="349" fill="#7aa3c9">PHASE 1 / DOMAIN LAYER</text>
    </g>
  </g>

  <!-- JOBB OLDAL: stilizált compass / wind rose -->
  <g transform="translate(1020, 200)">
    <!-- Glow -->
    <circle cx="0" cy="0" r="180" fill="url(#compassGlow)"/>

    <!-- Külső gyűrűk -->
    <circle cx="0" cy="0" r="148" fill="none" stroke="#1b3a5b" stroke-width="1"/>
    <circle cx="0" cy="0" r="120" fill="none" stroke="#1b3a5b" stroke-width="1"/>
    <circle cx="0" cy="0" r="92"  fill="none" stroke="#1b3a5b" stroke-width="1"/>
    <circle cx="0" cy="0" r="148" fill="none" stroke="#00e0ff" stroke-width="0.6" opacity="0.55"
            stroke-dasharray="2 6"/>

    <!-- Manuálisan kihelyezett tick-ek (transzformálva) -->
    <g stroke="#3a5e85" stroke-width="1">
      <line x1="0" y1="-148" x2="0" y2="-140" transform="rotate(0)"/>
      <line x1="0" y1="-148" x2="0" y2="-140" transform="rotate(30)"/>
      <line x1="0" y1="-148" x2="0" y2="-140" transform="rotate(60)"/>
      <line x1="0" y1="-148" x2="0" y2="-140" transform="rotate(90)"/>
      <line x1="0" y1="-148" x2="0" y2="-140" transform="rotate(120)"/>
      <line x1="0" y1="-148" x2="0" y2="-140" transform="rotate(150)"/>
      <line x1="0" y1="-148" x2="0" y2="-140" transform="rotate(180)"/>
      <line x1="0" y1="-148" x2="0" y2="-140" transform="rotate(210)"/>
      <line x1="0" y1="-148" x2="0" y2="-140" transform="rotate(240)"/>
      <line x1="0" y1="-148" x2="0" y2="-140" transform="rotate(270)"/>
      <line x1="0" y1="-148" x2="0" y2="-140" transform="rotate(300)"/>
      <line x1="0" y1="-148" x2="0" y2="-140" transform="rotate(330)"/>
    </g>

    <!-- Főpont jelek N E S W -->
    <g font-family="'JetBrains Mono','SF Mono','Consolas',monospace" font-size="13" fill="#7aa3c9" letter-spacing="2">
      <text x="0"    y="-156" text-anchor="middle" fill="#00e0ff" font-weight="700">N</text>
      <text x="156"  y="5"    text-anchor="middle">E</text>
      <text x="0"    y="172"  text-anchor="middle">S</text>
      <text x="-156" y="5"    text-anchor="middle">W</text>
    </g>

    <!-- Szélirány nyíl -->
    <g transform="rotate(-42)">
      <line x1="0" y1="0" x2="0" y2="-132" stroke="#00e0ff" stroke-width="2"/>
      <polygon points="0,-148 -8,-128 8,-128" fill="#00e0ff"/>
      <line x1="0" y1="-100" x2="14" y2="-108" stroke="#00e0ff" stroke-width="2"/>
      <line x1="0" y1="-85"  x2="10" y2="-91"  stroke="#00e0ff" stroke-width="2"/>
    </g>

    <!-- Predict pozíció — sárga, halványabb -->
    <g transform="rotate(-38)" opacity="0.85">
      <line x1="0" y1="0" x2="0" y2="-118" stroke="#ffd24a" stroke-width="1.4"
            stroke-dasharray="3 4"/>
      <polygon points="0,-128 -6,-114 6,-114" fill="#ffd24a"/>
    </g>

    <!-- Hajó orr-jelölés -->
    <g>
      <polygon points="0,-12 -8,12 8,12" fill="#f4f8fb"/>
      <circle cx="0" cy="0" r="3" fill="#04101e" stroke="#f4f8fb" stroke-width="1.2"/>
    </g>

    <!-- Két érték címke a compass mellé -->
    <g font-family="'JetBrains Mono','SF Mono','Consolas',monospace">
      <text x="-178" y="-100" font-size="10" fill="#5d8bb3" letter-spacing="2">TWA</text>
      <text x="-178" y="-82"  font-size="22" fill="#00e0ff" letter-spacing="1">-042°</text>

      <text x="120"  y="100"  font-size="10" fill="#5d8bb3" letter-spacing="2">PRED.</text>
      <text x="120"  y="120"  font-size="22" fill="#ffd24a" letter-spacing="1">-038°</text>
    </g>
  </g>

  <!-- Alsó vékony záró sor -->
  <line x1="0" y1="372" x2="1280" y2="372" stroke="url(#accentLine)" stroke-width="0.8"/>
  <g font-family="'JetBrains Mono','SF Mono','Consolas',monospace" font-size="11" fill="#5d8bb3" letter-spacing="2">
    <text x="40"  y="390">v0.1.0 · BUILD #001 · MAIN</text>
    <text x="1240" y="390" text-anchor="end">github.com/csakos1/sailing-assistant</text>
  </g>
</svg>
